<svg width="184" height="48" viewBox="0 0 184 48" fill="none" xmlns="http://www.w3.org/2000/svg">
<path d="M16.2143 33.4287C24.893 33.4287 31.9285 26.3932 31.9285 17.7144C31.9285 16.7308 31.8382 15.7683 31.6653 14.8348C30.7318 14.6619 29.7693 14.5715 28.7857 14.5715C20.1069 14.5715 13.0714 21.6071 13.0714 30.2858C13.0714 31.2694 13.1618 32.2319 13.3347 33.1654C14.2682 33.3383 15.2307 33.4287 16.2143 33.4287Z" fill="#175CD3"/>
<path fill-rule="evenodd" clip-rule="evenodd" d="M13.3347 33.1653C6.03115 31.8127 0.499969 25.4095 0.499969 17.7143C0.499969 9.03553 7.5355 2 16.2143 2C23.9094 2 30.3127 7.53118 31.6653 14.8347C30.7318 14.6618 29.7693 14.5714 28.7857 14.5714C20.1069 14.5714 13.0714 21.607 13.0714 30.2857C13.0714 31.2693 13.1618 32.2318 13.3347 33.1653Z" fill="#1570EF"/>
<path fill-rule="evenodd" clip-rule="evenodd" d="M16.2142 33.4286C24.893 33.4286 31.9285 26.3931 31.9285 17.7143C31.9285 16.7307 31.8381 15.7682 31.6652 14.8347C38.9687 16.1873 44.4999 22.5906 44.4999 30.2858C44.4999 38.9645 37.4644 46 28.7856 46C21.0905 46 14.6872 40.4689 13.3346 33.1654C14.2681 33.3382 15.2306 33.4286 16.2142 33.4286Z" fill="#2E90FA"/>
<path d="M74.728 28.9039C74.168 30.7146 73.188 32.0679 71.788 32.9639C70.388 33.8413 68.7546 34.2799 66.888 34.2799C65.0586 34.2799 63.472 33.8973 62.128 33.1319C60.8026 32.3666 59.776 31.2746 59.048 29.8559C58.3386 28.4373 57.984 26.7386 57.984 24.7599C57.984 22.7813 58.348 21.0826 59.076 19.6639C59.804 18.2453 60.8306 17.1533 62.156 16.3879C63.4813 15.6226 65.04 15.2399 66.832 15.2399C68.7173 15.2399 70.332 15.6413 71.676 16.4439C73.0386 17.2279 73.972 18.4226 74.476 20.0279L70.976 21.5119C70.6586 20.3919 70.1733 19.5986 69.52 19.1319C68.8666 18.6466 68.0266 18.4039 67 18.4039C65.4693 18.4039 64.2466 18.9546 63.332 20.0559C62.436 21.1386 61.988 22.7066 61.988 24.7599C61.988 26.7946 62.4173 28.3626 63.276 29.4639C64.1346 30.5653 65.376 31.1159 67 31.1159C68.008 31.1159 68.876 30.8453 69.604 30.3039C70.3506 29.7626 70.8733 28.9413 71.172 27.8399L74.728 28.9039Z" fill="#101828"/>
<path d="M79.5613 17.9839C77.9746 17.9839 77.1813 17.3026 77.1813 15.9399C77.1813 14.5586 77.9746 13.8679 79.5613 13.8679C81.1479 13.8679 81.9413 14.5586 81.9413 15.9399C81.9413 17.3026 81.1479 17.9839 79.5613 17.9839ZM81.4653 19.9999V33.9999H77.6293V19.9999H81.4653Z" fill="#101828"/>
<path d="M85.5316 33.9999V19.9999H88.8636L89.1156 22.7439C89.4703 21.7919 90.0023 21.0546 90.7116 20.5319C91.4396 19.9906 92.3543 19.7199 93.4556 19.7199C94.1089 19.7199 94.6129 19.8226 94.9676 20.0279L94.5196 23.2479C94.3329 23.1919 94.0996 23.1453 93.8196 23.1079C93.5583 23.0519 93.2129 23.0239 92.7836 23.0239C92.2049 23.0239 91.6543 23.1639 91.1316 23.4439C90.6276 23.7053 90.2076 24.1159 89.8716 24.6759C89.5356 25.2173 89.3676 25.9079 89.3676 26.7479V33.9999H85.5316Z" fill="#101828"/>
<path d="M103.427 19.7199C105.293 19.7199 106.74 20.1213 107.767 20.9239C108.812 21.7266 109.503 22.6973 109.839 23.8359L106.255 25.1239C105.881 23.4253 104.957 22.5759 103.483 22.5759C102.419 22.5759 101.588 22.9493 100.991 23.6959C100.412 24.4426 100.123 25.5533 100.123 27.0279C100.123 28.5213 100.421 29.6319 101.019 30.3599C101.635 31.0693 102.465 31.4239 103.511 31.4239C105.135 31.4239 106.105 30.5933 106.423 28.9319L109.895 30.0519C109.577 31.3026 108.868 32.3199 107.767 33.1039C106.684 33.8879 105.275 34.2799 103.539 34.2799C102.083 34.2799 100.804 33.9906 99.7027 33.4119C98.62 32.8333 97.78 32.0026 97.1827 30.9199C96.5853 29.8373 96.2867 28.5306 96.2867 26.9999C96.2867 25.4693 96.5853 24.1626 97.1827 23.0799C97.7987 21.9973 98.6387 21.1666 99.7027 20.5879C100.785 20.0093 102.027 19.7199 103.427 19.7199Z" fill="#101828"/>
<path d="M119.259 19.7199C120.659 19.7199 121.901 20.0093 122.983 20.5879C124.066 21.1666 124.906 21.9973 125.503 23.0799C126.119 24.1626 126.427 25.4693 126.427 26.9999C126.427 28.5306 126.119 29.8373 125.503 30.9199C124.906 32.0026 124.066 32.8333 122.983 33.4119C121.901 33.9906 120.659 34.2799 119.259 34.2799C117.841 34.2799 116.59 33.9906 115.507 33.4119C114.443 32.8333 113.603 32.0026 112.987 30.9199C112.39 29.8373 112.091 28.5306 112.091 26.9999C112.091 25.4693 112.39 24.1626 112.987 23.0799C113.603 21.9973 114.443 21.1666 115.507 20.5879C116.59 20.0093 117.841 19.7199 119.259 19.7199ZM119.259 22.5759C118.214 22.5759 117.393 22.9493 116.795 23.6959C116.217 24.4239 115.927 25.5253 115.927 26.9999C115.927 28.4746 116.217 29.5853 116.795 30.3319C117.393 31.0599 118.214 31.4239 119.259 31.4239C120.286 31.4239 121.089 31.0599 121.667 30.3319C122.265 29.5853 122.563 28.4746 122.563 26.9999C122.563 25.5253 122.265 24.4239 121.667 23.6959C121.089 22.9493 120.286 22.5759 119.259 22.5759Z" fill="#101828"/>
<path d="M136.021 19.7199C137.421 19.7199 138.662 20.0093 139.745 20.5879C140.828 21.1666 141.668 21.9973 142.265 23.0799C142.881 24.1626 143.189 25.4693 143.189 26.9999C143.189 28.5306 142.881 29.8373 142.265 30.9199C141.668 32.0026 140.828 32.8333 139.745 33.4119C138.662 33.9906 137.421 34.2799 136.021 34.2799C134.602 34.2799 133.352 33.9906 132.269 33.4119C131.205 32.8333 130.365 32.0026 129.749 30.9199C129.152 29.8373 128.853 28.5306 128.853 26.9999C128.853 25.4693 129.152 24.1626 129.749 23.0799C130.365 21.9973 131.205 21.1666 132.269 20.5879C133.352 20.0093 134.602 19.7199 136.021 19.7199ZM136.021 22.5759C134.976 22.5759 134.154 22.9493 133.557 23.6959C132.978 24.4239 132.689 25.5253 132.689 26.9999C132.689 28.4746 132.978 29.5853 133.557 30.3319C134.154 31.0599 134.976 31.4239 136.021 31.4239C137.048 31.4239 137.85 31.0599 138.429 30.3319C139.026 29.5853 139.325 28.4746 139.325 26.9999C139.325 25.5253 139.026 24.4239 138.429 23.6959C137.85 22.9493 137.048 22.5759 136.021 22.5759Z" fill="#101828"/>
<path d="M150.179 13.8679V29.6879C150.179 30.3413 150.291 30.7986 150.515 31.0599C150.739 31.3213 151.112 31.4519 151.635 31.4519C151.952 31.4519 152.213 31.4333 152.419 31.3959C152.624 31.3586 152.885 31.2839 153.203 31.1719L152.867 33.6919C152.549 33.8786 152.148 34.0186 151.663 34.1119C151.196 34.2239 150.729 34.2799 150.263 34.2799C148.9 34.2799 147.901 33.9533 147.267 33.2999C146.651 32.6279 146.343 31.5639 146.343 30.1079V13.8679H150.179Z" fill="#101828"/>
<path d="M161.836 34.2799C159.634 34.2799 157.87 33.6453 156.544 32.3759C155.219 31.0879 154.556 29.2959 154.556 26.9999C154.556 25.4693 154.855 24.1626 155.452 23.0799C156.05 21.9973 156.88 21.1666 157.944 20.5879C159.027 20.0093 160.259 19.7199 161.64 19.7199C163.059 19.7199 164.263 20.0093 165.252 20.5879C166.242 21.1479 166.998 21.9226 167.52 22.9119C168.043 23.8826 168.304 24.9933 168.304 26.2439C168.304 26.6173 168.295 26.9719 168.276 27.3079C168.258 27.6439 168.23 27.9426 168.192 28.2039H158.308C158.458 29.2866 158.831 30.0986 159.428 30.6399C160.044 31.1626 160.838 31.4239 161.808 31.4239C162.63 31.4239 163.292 31.2653 163.796 30.9479C164.3 30.6306 164.692 30.1919 164.972 29.6319L168.024 30.8079C167.576 31.9093 166.792 32.7679 165.672 33.3839C164.552 33.9813 163.274 34.2799 161.836 34.2799ZM161.612 22.5479C159.802 22.5479 158.71 23.5466 158.336 25.5439H164.636C164.524 24.5733 164.207 23.8359 163.684 23.3319C163.18 22.8093 162.49 22.5479 161.612 22.5479Z" fill="#101828"/>
<path d="M177.155 34.2799C175.736 34.2799 174.439 34.0279 173.263 33.5239C172.106 33.0199 171.163 32.3106 170.435 31.3959L172.647 29.1559C173.095 29.8279 173.692 30.3786 174.439 30.8079C175.186 31.2373 176.072 31.4519 177.099 31.4519C177.827 31.4519 178.406 31.3493 178.835 31.1439C179.283 30.9199 179.507 30.5746 179.507 30.1079C179.507 29.8093 179.404 29.5573 179.199 29.3519C178.994 29.1279 178.583 28.9506 177.967 28.8199L175.503 28.3159C173.879 27.9799 172.722 27.4759 172.031 26.8039C171.359 26.1133 171.023 25.2266 171.023 24.1439C171.023 23.3786 171.247 22.6599 171.695 21.9879C172.162 21.3159 172.852 20.7746 173.767 20.3639C174.682 19.9346 175.82 19.7199 177.183 19.7199C180.02 19.7199 182.055 20.5879 183.287 22.3239L180.991 24.5639C180.58 23.9106 180.039 23.4159 179.367 23.0799C178.714 22.7253 178.023 22.5479 177.295 22.5479C175.652 22.5479 174.831 23.0053 174.831 23.9199C174.831 24.2186 174.962 24.4799 175.223 24.7039C175.484 24.9093 175.96 25.0866 176.651 25.2359L179.507 25.8239C180.888 26.1039 181.878 26.5799 182.475 27.2519C183.072 27.9053 183.371 28.6986 183.371 29.6319C183.371 30.9759 182.83 32.0866 181.747 32.9639C180.683 33.8413 179.152 34.2799 177.155 34.2799Z" fill="#101828"/>
</svg>
