<svg width="116" height="24" viewBox="0 0 116 24" fill="none" xmlns="http://www.w3.org/2000/svg">
<path d="M1.77841 18V6.36364H3.53409V16.4886H8.80682V18H1.77841ZM14.4347 18.1761C13.5748 18.1761 12.8343 17.9924 12.2131 17.625C11.5956 17.2538 11.1184 16.733 10.7812 16.0625C10.4479 15.3883 10.2812 14.5985 10.2812 13.6932C10.2812 12.7992 10.4479 12.0114 10.7812 11.3295C11.1184 10.6477 11.5881 10.1155 12.1903 9.73295C12.7964 9.35038 13.5047 9.15909 14.3153 9.15909C14.8078 9.15909 15.285 9.24053 15.7472 9.40341C16.2093 9.56629 16.6241 9.82197 16.9915 10.1705C17.3589 10.5189 17.6487 10.9716 17.8608 11.5284C18.0729 12.0814 18.179 12.7538 18.179 13.5455V14.1477H11.2415V12.875H16.5142C16.5142 12.428 16.4233 12.0322 16.2415 11.6875C16.0597 11.339 15.804 11.0644 15.4744 10.8636C15.1487 10.6629 14.7661 10.5625 14.3267 10.5625C13.8494 10.5625 13.4328 10.6799 13.0767 10.9148C12.7244 11.1458 12.4517 11.4489 12.2585 11.8239C12.0691 12.1951 11.9744 12.5985 11.9744 13.0341V14.0284C11.9744 14.6117 12.0767 15.108 12.2812 15.517C12.4896 15.9261 12.7794 16.2386 13.1506 16.4545C13.5218 16.6667 13.9555 16.7727 14.4517 16.7727C14.7737 16.7727 15.0672 16.7273 15.3324 16.6364C15.5975 16.5417 15.8267 16.4015 16.0199 16.2159C16.2131 16.0303 16.3608 15.8011 16.4631 15.5284L18.071 15.8182C17.9422 16.2917 17.7112 16.7064 17.3778 17.0625C17.0483 17.4148 16.6335 17.6894 16.1335 17.8864C15.6373 18.0795 15.071 18.1761 14.4347 18.1761ZM22.6037 18.1932C22.0507 18.1932 21.5507 18.0909 21.1037 17.8864C20.6567 17.678 20.3026 17.3769 20.0412 16.983C19.7836 16.589 19.6548 16.1061 19.6548 15.5341C19.6548 15.0417 19.7495 14.6364 19.9389 14.3182C20.1283 14 20.384 13.7481 20.706 13.5625C21.0279 13.3769 21.3878 13.2367 21.7855 13.142C22.1832 13.0473 22.5885 12.9754 23.0014 12.9261C23.5241 12.8655 23.9484 12.8163 24.2741 12.7784C24.5999 12.7367 24.8366 12.6705 24.9844 12.5795C25.1321 12.4886 25.206 12.3409 25.206 12.1364V12.0966C25.206 11.6004 25.0658 11.2159 24.7855 10.9432C24.509 10.6705 24.0961 10.5341 23.5469 10.5341C22.9749 10.5341 22.5241 10.661 22.1946 10.9148C21.8688 11.1648 21.6435 11.4432 21.5185 11.75L19.9219 11.3864C20.1113 10.8561 20.3878 10.428 20.7514 10.1023C21.1188 9.77273 21.5412 9.53409 22.0185 9.38636C22.4957 9.23485 22.9976 9.15909 23.5241 9.15909C23.8726 9.15909 24.242 9.20076 24.6321 9.28409C25.026 9.36364 25.3935 9.51136 25.7344 9.72727C26.0791 9.94318 26.3613 10.2519 26.581 10.6534C26.8007 11.0511 26.9105 11.5682 26.9105 12.2045V18H25.2514V16.8068H25.1832C25.0734 17.0265 24.9086 17.2424 24.6889 17.4545C24.4692 17.6667 24.187 17.8428 23.8423 17.983C23.4976 18.1231 23.0848 18.1932 22.6037 18.1932ZM22.973 16.8295C23.4427 16.8295 23.8442 16.7367 24.1776 16.5511C24.5147 16.3655 24.7704 16.1231 24.9446 15.8239C25.1226 15.5208 25.2116 15.197 25.2116 14.8523V13.7273C25.151 13.7879 25.0336 13.8447 24.8594 13.8977C24.6889 13.947 24.4938 13.9905 24.2741 14.0284C24.0545 14.0625 23.8404 14.0947 23.6321 14.125C23.4238 14.1515 23.2495 14.1742 23.1094 14.1932C22.7798 14.2348 22.4787 14.3049 22.206 14.4034C21.937 14.5019 21.7211 14.6439 21.5582 14.8295C21.3991 15.0114 21.3196 15.2538 21.3196 15.5568C21.3196 15.9773 21.4749 16.2955 21.7855 16.5114C22.0961 16.7235 22.492 16.8295 22.973 16.8295ZM29.1733 18V9.27273H30.8153V10.6591H30.9062C31.0653 10.1894 31.3456 9.82008 31.7472 9.55114C32.1525 9.27841 32.6108 9.14205 33.1222 9.14205C33.2282 9.14205 33.3532 9.14583 33.4972 9.15341C33.6449 9.16098 33.7604 9.17045 33.8438 9.18182V10.8068C33.7756 10.7879 33.6544 10.767 33.4801 10.7443C33.3059 10.7178 33.1316 10.7045 32.9574 10.7045C32.5559 10.7045 32.1979 10.7898 31.8835 10.9602C31.5729 11.1269 31.3267 11.3598 31.1449 11.6591C30.9631 11.9545 30.8722 12.2917 30.8722 12.6705V18H29.1733ZM37.0128 12.8182V18H35.3139V9.27273H36.9446V10.6932H37.0526C37.2533 10.2311 37.5677 9.85985 37.9957 9.57955C38.4276 9.29924 38.9711 9.15909 39.6264 9.15909C40.2211 9.15909 40.742 9.28409 41.1889 9.53409C41.6359 9.7803 41.9825 10.1477 42.2287 10.6364C42.4749 11.125 42.598 11.7292 42.598 12.4489V18H40.8991V12.6534C40.8991 12.0208 40.7344 11.5265 40.4048 11.1705C40.0753 10.8106 39.6226 10.6307 39.0469 10.6307C38.6529 10.6307 38.3026 10.7159 37.9957 10.8864C37.6927 11.0568 37.4522 11.3068 37.2741 11.6364C37.0999 11.9621 37.0128 12.3561 37.0128 12.8182ZM49.1108 18V9.27273H50.7415V10.6932H50.8494C51.0313 10.2121 51.3286 9.83712 51.7415 9.56818C52.1544 9.29545 52.6487 9.15909 53.2244 9.15909C53.8078 9.15909 54.2964 9.29545 54.6903 9.56818C55.0881 9.84091 55.3816 10.2159 55.571 10.6932H55.6619C55.8703 10.2273 56.2017 9.85606 56.6562 9.57955C57.1108 9.29924 57.6525 9.15909 58.2812 9.15909C59.0729 9.15909 59.7188 9.4072 60.2188 9.90341C60.7225 10.3996 60.9744 11.1477 60.9744 12.1477V18H59.2756V12.3068C59.2756 11.7159 59.1146 11.2879 58.7926 11.0227C58.4706 10.7576 58.0862 10.625 57.6392 10.625C57.0862 10.625 56.6562 10.7955 56.3494 11.1364C56.0426 11.4735 55.8892 11.9072 55.8892 12.4375V18H54.196V12.1989C54.196 11.7254 54.0483 11.3447 53.7528 11.0568C53.4574 10.7689 53.0729 10.625 52.5994 10.625C52.2775 10.625 51.9801 10.7102 51.7074 10.8807C51.4384 11.0473 51.2206 11.2803 51.054 11.5795C50.8911 11.8788 50.8097 12.2254 50.8097 12.6193V18H49.1108ZM66.9276 18.1761C66.1094 18.1761 65.3954 17.9886 64.7855 17.6136C64.1757 17.2386 63.7022 16.714 63.3651 16.0398C63.0279 15.3655 62.8594 14.5777 62.8594 13.6761C62.8594 12.7708 63.0279 11.9792 63.3651 11.3011C63.7022 10.6231 64.1757 10.0966 64.7855 9.72159C65.3954 9.34659 66.1094 9.15909 66.9276 9.15909C67.7457 9.15909 68.4598 9.34659 69.0696 9.72159C69.6795 10.0966 70.1529 10.6231 70.4901 11.3011C70.8272 11.9792 70.9957 12.7708 70.9957 13.6761C70.9957 14.5777 70.8272 15.3655 70.4901 16.0398C70.1529 16.714 69.6795 17.2386 69.0696 17.6136C68.4598 17.9886 67.7457 18.1761 66.9276 18.1761ZM66.9332 16.75C67.4635 16.75 67.9029 16.6098 68.2514 16.3295C68.5999 16.0492 68.8575 15.6761 69.0241 15.2102C69.1946 14.7443 69.2798 14.2311 69.2798 13.6705C69.2798 13.1136 69.1946 12.6023 69.0241 12.1364C68.8575 11.6667 68.5999 11.2898 68.2514 11.0057C67.9029 10.7216 67.4635 10.5795 66.9332 10.5795C66.3991 10.5795 65.956 10.7216 65.6037 11.0057C65.2552 11.2898 64.9957 11.6667 64.8253 12.1364C64.6586 12.6023 64.5753 13.1136 64.5753 13.6705C64.5753 14.2311 64.6586 14.7443 64.8253 15.2102C64.9957 15.6761 65.2552 16.0492 65.6037 16.3295C65.956 16.6098 66.3991 16.75 66.9332 16.75ZM72.892 18V9.27273H74.5341V10.6591H74.625C74.7841 10.1894 75.0644 9.82008 75.4659 9.55114C75.8712 9.27841 76.3295 9.14205 76.8409 9.14205C76.947 9.14205 77.072 9.14583 77.2159 9.15341C77.3636 9.16098 77.4792 9.17045 77.5625 9.18182V10.8068C77.4943 10.7879 77.3731 10.767 77.1989 10.7443C77.0246 10.7178 76.8504 10.7045 76.6761 10.7045C76.2746 10.7045 75.9167 10.7898 75.6023 10.9602C75.2917 11.1269 75.0455 11.3598 74.8636 11.6591C74.6818 11.9545 74.5909 12.2917 74.5909 12.6705V18H72.892ZM82.4815 18.1761C81.6217 18.1761 80.8812 17.9924 80.2599 17.625C79.6425 17.2538 79.1652 16.733 78.8281 16.0625C78.4948 15.3883 78.3281 14.5985 78.3281 13.6932C78.3281 12.7992 78.4948 12.0114 78.8281 11.3295C79.1652 10.6477 79.6349 10.1155 80.2372 9.73295C80.8433 9.35038 81.5516 9.15909 82.3622 9.15909C82.8546 9.15909 83.3319 9.24053 83.794 9.40341C84.2562 9.56629 84.6709 9.82197 85.0384 10.1705C85.4058 10.5189 85.6955 10.9716 85.9077 11.5284C86.1198 12.0814 86.2259 12.7538 86.2259 13.5455V14.1477H79.2884V12.875H84.5611C84.5611 12.428 84.4702 12.0322 84.2884 11.6875C84.1065 11.339 83.8509 11.0644 83.5213 10.8636C83.1955 10.6629 82.813 10.5625 82.3736 10.5625C81.8963 10.5625 81.4796 10.6799 81.1236 10.9148C80.7713 11.1458 80.4986 11.4489 80.3054 11.8239C80.116 12.1951 80.0213 12.5985 80.0213 13.0341V14.0284C80.0213 14.6117 80.1236 15.108 80.3281 15.517C80.5365 15.9261 80.8262 16.2386 81.1974 16.4545C81.5687 16.6667 82.0024 16.7727 82.4986 16.7727C82.8205 16.7727 83.1141 16.7273 83.3793 16.6364C83.6444 16.5417 83.8736 16.4015 84.0668 16.2159C84.2599 16.0303 84.4077 15.8011 84.5099 15.5284L86.1179 15.8182C85.9891 16.2917 85.758 16.7064 85.4247 17.0625C85.0952 17.4148 84.6804 17.6894 84.1804 17.8864C83.6842 18.0795 83.1179 18.1761 82.4815 18.1761Z" fill="#087443"/>
<path d="M99.6667 12H111.333M111.333 12L105.5 6.16666M111.333 12L105.5 17.8333" stroke="#087443" stroke-width="1.67" stroke-linecap="round" stroke-linejoin="round"/>
</svg>
